# xmcd CD Database Entry
#
# Track frame offsets:
# 150
# 19015
# 40860
# 55977
# 72007
# 95162
# 117957
# 130780
# 154897
# 173510
#
# Disc length: 2492 seconds
#
# Revision: 3
# Processed by: cddbd v1.4PL0 Copyright (c) Steve Scherf et al.
# Submitted via: tcd 2.0b
#
DISCID=7e09ba0a
DTITLE=Pamela Rose - Every Time I'm With you
DYEAR=1996
DGENRE=
TTITLE0=Every time I'm with you
TTITLE1=On the sunny side of the street
TTITLE2=Whether to stay or go
TTITLE3=Consider me
TTITLE4=Bye Bye Blackbird
TTITLE5=Love For Sale
TTITLE6=It's Only a Paper Moon
TTITLE7=Never Known a Morning
TTITLE8=You came Along From St. Louis
TTITLE9=I'm Just a Lucky So and So
EXTD=YEAR: 1996\nGENRE: BLUES
EXTT0=
EXTT1=
EXTT2=
EXTT3=
EXTT4=
EXTT5=
EXTT6=
EXTT7=
EXTT8=
EXTT9=
PLAYORDER=
